<svg id="Calque_1" data-name="Calque 1" xmlns="http://www.w3.org/2000/svg" viewBox="0 0 897.89 900.14"><title>logo2</title><path d="M.07,449.69Q.07,226.57,0,3.44C0,.63.63,0,3.45,0q445.5.11,891,0c2.81,0,3.44.63,3.44,3.44q-.1,446.63,0,893.25c0,2.82-.63,3.45-3.44,3.45q-445.5-.1-891,0c-2.82,0-3.45-.63-3.45-3.45Q.12,673.19.07,449.69Z" style="fill:#46545d"/><path d="M450.11,602H185.44c-5.37,0-5.37,0-5.37-5.32a10.61,10.61,0,0,0,0-1.87c-.55-3.23.63-4.17,4-4.17q266,.14,532,0c3.21,0,4.29.67,4.16,4.08-.29,7.26-.08,7.27-7.26,7.27Z" style="fill:#ececec"/><path d="M619,393.82c32.37,0,64.74.06,97.1-.09,3.39,0,4.15.9,4,4.13-.24,7.21-.07,7.21-7.23,7.21q-95.59,0-191.21.09c-3.49,0-4.34-1-4.22-4.31.25-7,.07-7,7-7Z" style="fill:#ededed"/><path d="M281.13,405.07c-32.37,0-64.74-.06-97.1.09-3.39,0-4.15-.9-4-4.13.24-7.21.07-7.21,7.23-7.21q95.6,0,191.21-.09c3.49,0,4.34,1,4.22,4.31-.25,7-.07,7-7,7Z" style="fill:#ededed"/><path d="M450.05,398.22q-19.49,0-39,0c-7.92,0-10.15-2.28-10.15-10.27v-53.2c0-7.39.77-8.37,8.15-9.82,2.28-.45,1.78-1.63,1-2.91-1.37-2.2-.19-2.57,1.71-2.56,2.12,0,4.24,0,6.36,0,2.29,0,5-.51,2.73,3.36-.62,1.05,0,2.19,1.61,2.09,1.49-.1,3.3.42,4.4-.26,1.79-1.09,0-2.44-.44-3.72s.66-1.44,1.58-1.45c4.88,0,9.75,0,14.62,0,1.6,0,2.08.81,1.31,2.14-2.06,3.52.37,3.3,2.65,3.3h43.83c6.28,0,9,2.43,9,8.78q.17,27.72,0,55.45c0,6.48-2.87,9-9.68,9.06C476.52,398.26,463.28,398.22,450.05,398.22Z" style="fill:#ececec"/><path d="M554.67,487.41c-.86-3.27-.31-6.39-1.6-9.3-2.8-6.35-9.05-10.22-15.67-9.36a14.26,14.26,0,0,0-12.68,13.63q-.5,17.49,0,35a14.29,14.29,0,0,0,13.14,13.83,15,15,0,0,0,15.74-11c.27-1,.28-2,.55-3,.92-3.4,4.43-4.45,6.67-4.32,2.76.17,1.43,3.63,1.24,5.57a22.6,22.6,0,0,1-23,20.24c-11.83-.17-22-9.07-22.59-20.8s-.49-23.77,0-35.63c.39-10.44,9-19.25,19.29-20.9a23,23,0,0,1,24.86,13.86C563.79,482.88,563.19,484.22,554.67,487.41Z" style="fill:#ececec"/><path d="M82.2,487.41c-.87-3.27-.32-6.39-1.61-9.3-2.8-6.35-9-10.22-15.66-9.36a14.27,14.27,0,0,0-12.69,13.63q-.5,17.49,0,35a14.29,14.29,0,0,0,13.14,13.83,15,15,0,0,0,15.74-11c.27-1,.28-2,.55-3,.92-3.4,4.43-4.45,6.67-4.32,2.76.17,1.43,3.63,1.24,5.57a22.6,22.6,0,0,1-23,20.24c-11.83-.17-22-9.07-22.59-20.8s-.49-23.76,0-35.63c.39-10.44,9-19.25,19.29-20.9a23,23,0,0,1,24.86,13.86C91.31,482.88,90.71,484.22,82.2,487.41Z" style="fill:#ececec"/><path d="M579.35,505.06c-.94-12.67,7.18-22.64,18.57-22.92,10.22-.26,20.39,7.85,19.78,20.95a225,225,0,0,0,.07,25.18c.38,5.86-1.76,8.77-8.3,9.64V510.18c-5.68,2.3-10.57,4.22-15.4,6.27-3.67,1.55-7.74,3.46-6.27,8.32s6.07,5.55,10.6,5.22c1.83-.13,3.62-1.84,5,1.21,2.19,4.79,1.49,6.66-3.83,7.34-7,.9-13.05-1.15-17.57-6.62-3.57-4.3-3.92-9.2-1.9-14.43,1.48-3.79,4.47-5.76,7.89-7.25,6-2.6,12-5.2,18.1-7.48,3.56-1.33,3.54-3.46,2.11-6.16-2.25-4.26-6.12-5.92-10.71-5.79s-8.23,2.72-9.2,6.86C587.08,502.93,583.66,504.14,579.35,505.06Z" style="fill:#ececec"/><path d="M165.89,505.17c-.62-11.05,4.9-19.7,13.93-22.34,8.63-2.53,17.8,1.54,22.36,9.71A13.63,13.63,0,0,1,204,499c.19,11.05.1,22.11.2,33.17,0,4.75-4.12,4.71-6.85,5.57-1.93.62-1.21-2-1.22-3.23-.07-7.76,0-15.53,0-23.71-5.81,1.09-10.63,3.69-15.62,5.76-3.68,1.53-7.65,3.53-6.07,8.41,1.48,4.59,5.79,5.17,10.12,5.18,1.54,0,3.17-2,4.49-.26s2.42,3.95,2.12,6.21c-.27,2-2.5,2-3.94,2.29-7.16,1.27-13.47-.54-18.33-6.09-3.86-4.42-4.25-9.49-2.12-14.93,1.59-4,5-5.9,8.51-7.47,5.78-2.56,11.65-5,17.56-7.2,3.12-1.17,3.44-2.94,2.15-5.65-2.11-4.43-5.88-6.15-10.44-6.21-4.85-.06-8.71,2.65-9.7,7C173.68,503,170.29,504,165.89,505.17Z" style="fill:#ececec"/><path d="M114.83,462.18c0,6.58.09,12.72,0,18.87-.06,3,.5,3.79,3.82,2.7,14.66-4.8,26.41,3.78,26.52,19.13.06,8.6-.37,17.23.14,25.81.36,6-2,8.73-8.32,9.13q0-17.77,0-35.45c0-4.71-1.9-8.32-6.21-10.41a10.56,10.56,0,0,0-11.56,1.15c-3.25,2.38-4.39,5.71-4.37,9.63q.08,13.83,0,27.67c0,1.58.65,3.46-.73,4.68-1.84,1.62-4.27,3.14-6.57,2.46-2-.6-.93-3.25-.94-4.95-.07-20.29.18-40.58-.18-60.86C106.28,465.59,108.35,462.61,114.83,462.18Z" style="fill:#ececec"/><path d="M691,490.19c6.32-7.18,6.4-15.22,6.35-23.53,0-4.19,4.82-3.36,8.1-5.67,0,6.19.19,11.45-.07,16.68-.16,3.45.91,4.66,4.47,4.53,6.74-.26,13.51-.08,20.47-.08-.16,6.21-2.37,9.3-9.09,8.78-5-.39-11.59-2.34-14.78.86s-.79,9.73-1,14.8a127,127,0,0,0,.17,13.52c.41,5.61,3.78,9,9.25,9.82s10.28-1.54,11.6-6.82c1.27-5.09,4.87-5.73,8.43-7.52,2.12,11.38-4.24,20.76-15.16,22.93A19,19,0,0,1,698,524.08c-1.91-9.1-.69-18.39-.72-27.59C697.22,492.31,696.74,489.57,691,490.19Z" style="fill:#eceded"/><path d="M668.5,537.89c0-12.16.06-24,0-35.86,0-5.55-2.84-9.24-8.23-10.81-5-1.45-8.76.66-11.87,4.36-1.83,2.17-2,4.84-2,7.54q0,13.83,0,27.66c0,2,.55,4.28-2,5.3-1.69.68-3.65,1.92-5.13,1.54-2.25-.57-1.14-3.13-1.15-4.79q-.17-15.36,0-30.73c.1-11.38,8.34-20,18.93-20,11.31,0,19.49,8.2,19.65,19.86.11,8.81-.33,17.64.15,26.43C677.13,534.23,675.19,537.31,668.5,537.89Z" style="fill:#ececec"/><path d="M845.68,537.85c0-11.93,0-23.76,0-35.59,0-5.53-2.62-9.29-8-11-5-1.54-8.75.44-11.94,4.1-2.05,2.34-2.15,5.21-2.15,8.1,0,9.22,0,18.45,0,27.67,0,2.36-.2,4.15-2.87,5.37-4.07,1.86-5.71,1.69-5.55-3.47.32-10.44,0-20.9.12-31.35.15-11,8.36-19.49,18.69-19.59,11.33-.11,19.69,8.05,19.88,19.63.14,9-.37,18,.17,27C854.37,535,851.81,537.4,845.68,537.85Z" style="fill:#ececec"/><path d="M422,538.73c-9.21.11-17.39-6.91-19.28-15.8-1-4.57,1.87-5.31,4.78-6.22,4.42-1.37,2.58,2.37,3,4,1.36,6.06,5.83,9.76,11.89,9.28,5.07-.4,8.47-3.18,9.29-8.24s-1.81-8.29-6.26-10a31.22,31.22,0,0,0-6.59-1.25c-7.38-1.13-12.22-6.61-12.2-13.86,0-6.79,6-13.51,12.8-14.38a14.71,14.71,0,0,1,15.91,9.85c.92,2.62-.23,3.49-2.14,4-1.65.43-3.48,2.95-5.11-.09a15.72,15.72,0,0,0-1.9-3.14,5.88,5.88,0,0,0-7.25-1.5c-2.68,1.17-4.36,3.18-4.13,6.17a5.61,5.61,0,0,0,4.88,5.51c2.21.42,4.44.79,6.63,1.33,9.48,2.32,14.65,9.56,13.56,18.92C438.83,531.93,431.11,538.62,422,538.73Z" style="fill:#ececec"/><path d="M292,461.82c0,18.49,0,36.68,0,54.88,0,4,.58,7.8,3.73,10.6a10.76,10.76,0,0,0,16.46-2.48c.95-1.51,1.24-3.43,2.07-5a7.14,7.14,0,0,1,7.13-3.58c1.8.2.9,3.48.65,5.43-1.34,10.43-9.54,17.53-19.69,17.1s-18.16-8.34-18.55-19.14c-.34-9.4-.08-18.82-.09-28.22,0-6.34.43-12.72-.12-19S285.07,462.74,292,461.82Z" style="fill:#ececec"/><path d="M764.49,481.76c0,12.58-.06,23.82,0,35.07.05,7.86,3,11.77,9.31,13,5.56,1.1,10-1.73,12.55-9,.88-2.5,2.64-2.81,4.29-3.76,3.23-1.85,4.29-.68,4.15,2.82a19.48,19.48,0,0,1-17.61,18.81c-9.51.89-18.64-5.34-20.22-14.91-2-11.94-.71-24.07-.65-36.12C756.36,483.4,761.15,484.29,764.49,481.76Z" style="fill:#ececec"/><path d="M255.52,504.53c-1.41-11.58-8.58-16.69-16.72-12.34-4.26,2.27-5.89,5.94-5.86,10.63.06,9.43,0,18.85,0,28.28,0,2.33-.09,4.22-2.81,5.41-3.88,1.71-5.78,2-5.61-3.37.33-10.65,0-21.31.14-32a19.63,19.63,0,0,1,14.92-18.74c8.12-1.9,17.44,2.4,21.36,9.83S263.94,501.8,255.52,504.53Z" style="fill:#ececec"/><path d="M767,467.93c-.62,3.77-2.4,6.67-6.58,6.74s-6.59-2.63-6.71-6.53,2.31-6.72,6.41-6.79S766.36,463.93,767,467.93Z" style="fill:#eaeaea"/><path d="M450,327.82q20.24,0,40.47,0c4.79,0,6.05,1.16,6.06,5.91q.06,27.9,0,55.82c0,4.22-1.46,5.73-5.59,5.74q-40.83,0-81.68,0c-4.23,0-5.6-1.44-5.6-5.64q0-28.1,0-56.2c0-4.48,1.23-5.63,5.88-5.63Q429.8,327.8,450,327.82Z" style="fill:#47555e"/><path d="M435.64,325.32c-1.75-1.22-5,1.25-4.93-1.81.06-2.72,3.2-1.23,4.88-1.26s4.52-1.31,4.52,1.23C440.12,326.74,436.83,323.73,435.64,325.32Z" style="fill:#57636b"/><path d="M415.7,324.91c-.82-.14-2.07.35-2.2-1.14-.15-1.72,1.16-1.53,2.23-1.54s2-.13,2.06,1.35S416.69,324.85,415.7,324.91Z" style="fill:#47555e"/><path d="M380.92,515.75c1.14,12.13-6.48,22.06-17.3,23-11.19.94-20.28-7.38-20.79-19.34-.28-6.34-.32-12.72,0-19.06a19.33,19.33,0,0,1,38.6.31c.21,3.6-1,5.62-4.35,7-7.55,3.11-14.88,6.77-22.48,9.79-3.76,1.5-4.07,3.53-2.35,6.57,2.17,3.84,5.34,6.26,9.9,6s8.88-2,9.95-6.69C373.23,518.47,376.27,516.83,380.92,515.75Z" style="fill:#ededed"/><path d="M351.1,509.91c0-3.44-.15-6.06,0-8.66.57-8.35,8.06-12.74,15.8-9.35,2.95,1.3,5.37,3.37,5.73,6.58.42,3.67-3.44,3.4-5.47,4.43C362.19,505.44,356.93,507.42,351.1,509.91Z" style="fill:#48565f"/><path d="M482.32,360.13A23.85,23.85,0,0,1,458.22,384c-13.09,0-23.58-10.9-23.53-24.36a23.82,23.82,0,0,1,47.63.52Z" style="fill:#ececec"/><path d="M485.89,337.59c-1.36,0-2.73-.07-4.08,0-1.6.11-2.21-.5-2.18-2.13s.8-2.13,2.3-2.1c2.73.06,5.45.07,8.17,0,1.63,0,2.09.68,2.14,2.24,0,1.76-.81,2.06-2.27,2S487.25,337.59,485.89,337.59Z" style="fill:#e2e3e3"/><path d="M431.68,359.94a2.75,2.75,0,0,1-2.83,2.89,2.77,2.77,0,0,1-.25-5.51A2.75,2.75,0,0,1,431.68,359.94Z" style="fill:#e3e4e4"/><path d="M408,343.37c.69.17,1.23.39,1.17,1.2a1.23,1.23,0,0,1-1.43,1.28,1,1,0,0,1-1.08-1.18A1.21,1.21,0,0,1,408,343.37Z" style="fill:#e6e7e7"/><path d="M414.75,344.68a1.24,1.24,0,0,1-1.53,1.14,1.19,1.19,0,0,1-1-1.33c0-1,.8-1.19,1.51-1.11A1.09,1.09,0,0,1,414.75,344.68Z" style="fill:#e1e2e3"/><path d="M418.89,343.36c.87.08,1.45.3,1.47,1.05s-.32,1.42-1.26,1.44a1,1,0,0,1-1.23-1A1.28,1.28,0,0,1,418.89,343.36Z" style="fill:#e6e7e7"/><path d="M424.77,343.35a1.12,1.12,0,0,1,1.21,1,1.22,1.22,0,0,1-1.16,1.52c-.9.08-1.28-.54-1.31-1.36S424.05,343.49,424.77,343.35Z" style="fill:#e1e2e3"/><path d="M431.63,344.42c-.05.82-.34,1.42-1.29,1.43-.7,0-1.18-.29-1.22-1a1.19,1.19,0,0,1,1.25-1.43A1.11,1.11,0,0,1,431.63,344.42Z" style="fill:#e6e7e7"/><path d="M436,343.35a1.13,1.13,0,0,1,1.2,1,1.22,1.22,0,0,1-1.22,1.47c-.92.05-1.27-.6-1.26-1.41S435.34,343.46,436,343.35Z" style="fill:#e1e2e3"/><path d="M457.25,389.62c-.09-.77.41-1.12,1-1.22a1.13,1.13,0,0,1,1.46,1.14,1.21,1.21,0,0,1-1,1.3C457.86,391,457.35,390.49,457.25,389.62Z" style="fill:#e1e2e3"/><path d="M465.36,389.68a1.22,1.22,0,0,1-1.53,1.16,1,1,0,0,1-1-1.29,1.17,1.17,0,0,1,1.51-1.13A1,1,0,0,1,465.36,389.68Z" style="fill:#e6e7e7"/><path d="M469.87,390.85a1.21,1.21,0,0,1-1.35-1.17c-.13-1,.53-1.3,1.32-1.31a1.08,1.08,0,0,1,1.16,1.12A1.21,1.21,0,0,1,469.87,390.85Z" style="fill:#e1e2e3"/><path d="M441.68,390.88c-.84,0-1.35-.3-1.34-1.24a1.19,1.19,0,0,1,1-1.28c.71-.09,1.51.12,1.55,1.06A1.23,1.23,0,0,1,441.68,390.88Z" style="fill:#dadbdc"/><path d="M430.43,390.88c-.84,0-1.35-.3-1.34-1.24a1.19,1.19,0,0,1,1-1.28c.71-.09,1.51.12,1.55,1.06A1.23,1.23,0,0,1,430.43,390.88Z" style="fill:#dadbdc"/><path d="M491,389.62c-.09-.77.41-1.12,1-1.22a1.13,1.13,0,0,1,1.46,1.14,1.21,1.21,0,0,1-1,1.3C491.61,391,491.1,390.49,491,389.62Z" style="fill:#e1e2e3"/><path d="M486.42,390.86a1,1,0,0,1-1.05-1.21,1.15,1.15,0,0,1,1.41-1.24c.64.06,1.16.38,1.09,1.18A1.25,1.25,0,0,1,486.42,390.86Z" style="fill:#e6e7e7"/><path d="M426,389.67a1.21,1.21,0,0,1-1.38,1.17c-.74,0-1-.56-1.11-1.21-.1-1,.61-1.28,1.37-1.26S426,388.78,426,389.67Z" style="fill:#e1e2e3"/><path d="M454.13,389.48c-.06.84-.42,1.4-1.35,1.37-.69,0-1.15-.33-1.16-1.08s.42-1.4,1.3-1.37C453.56,388.42,454.1,388.69,454.13,389.48Z" style="fill:#e6e7e7"/><path d="M482.27,389.42a1.28,1.28,0,0,1-1.28,1.42,1.12,1.12,0,0,1-1.22-1.08c-.16-.93.41-1.34,1.24-1.39A1.17,1.17,0,0,1,482.27,389.42Z" style="fill:#e1e2e3"/><path d="M419.06,390.85c-.71,0-1.17-.32-1.19-1.07a1.18,1.18,0,0,1,1.28-1.39c.65,0,1.22.3,1.22,1.06S420,390.85,419.06,390.85Z" style="fill:#e6e7e7"/><path d="M413.54,388.35a1.13,1.13,0,0,1,1.2,1,1.22,1.22,0,0,1-1.22,1.47c-.92.05-1.27-.6-1.26-1.41S412.84,388.46,413.54,388.35Z" style="fill:#e1e2e3"/><path d="M409.14,389.55a1.25,1.25,0,0,1-1.43,1.32,1,1,0,0,1-1.11-1.18c0-.9.51-1.38,1.4-1.31C408.64,388.44,409.2,388.73,409.14,389.55Z" style="fill:#dfe1e1"/><path d="M447.15,388.32a1.17,1.17,0,0,1,1.33.91,1.24,1.24,0,0,1-1.07,1.63c-.88.13-1.37-.42-1.45-1.3S446.45,388.52,447.15,388.32Z" style="fill:#d6d8d9"/><path d="M492.16,343.35a1.16,1.16,0,0,1,1.3.89,1.21,1.21,0,0,1-1,1.59c-.86.15-1.33-.41-1.41-1.26S491.47,343.54,492.16,343.35Z" style="fill:#e1e2e3"/><path d="M476.63,389.42c-.05.82-.34,1.42-1.29,1.43-.7,0-1.18-.29-1.22-1a1.19,1.19,0,0,1,1.25-1.43A1.11,1.11,0,0,1,476.63,389.42Z" style="fill:#e6e7e7"/><path d="M487.87,344.55c-.07.87-.51,1.36-1.41,1.3a1,1,0,0,1-1.09-1.16c0-.89.5-1.36,1.37-1.29C487.38,343.46,487.93,343.74,487.87,344.55Z" style="fill:#e6e7e7"/><path d="M481.26,345.88c-1.12,0-1.45-.55-1.53-1.2-.12-1,.56-1.33,1.36-1.34a1.11,1.11,0,0,1,1.18,1.14A1.38,1.38,0,0,1,481.26,345.88Z" style="fill:#d6d8d9"/><path d="M436.12,390.85a1.21,1.21,0,0,1-1.35-1.17c-.13-1,.53-1.3,1.32-1.31a1.08,1.08,0,0,1,1.16,1.12A1.21,1.21,0,0,1,436.12,390.85Z" style="fill:#e1e2e3"/><path d="M479.42,360.38a20.62,20.62,0,0,1-21,20.69,21,21,0,0,1-21-20.94c0-11.85,9.5-21.15,21.58-21.06C470.56,339.16,479.46,348.45,479.42,360.38Z" style="fill:#47555e"/><path d="M458.83,377a16.88,16.88,0,0,1-.49-33.76c9-.21,17.09,7.7,17.13,16.83A17.23,17.23,0,0,1,458.83,377Z" style="fill:#ececec"/><path d="M444.54,359.62c.27-7.53,6.76-13.85,14-13.66a14.12,14.12,0,1,1-14,13.66Z" style="fill:#47555e"/></svg>